<svg id="visual" viewBox="0 0 900 450" width="900" height="450" xmlns="http://www.w3.org/2000/svg" xmlns:xlink="http://www.w3.org/1999/xlink" version="1.1"><rect x="0" y="0" width="900" height="450" fill="#323031"></rect><path d="M0 286L8.8 292C17.7 298 35.3 310 53 312C70.7 314 88.3 306 106 307.7C123.7 309.3 141.3 320.7 159 325.7C176.7 330.7 194.3 329.3 212 331.8C229.7 334.3 247.3 340.7 265 336.2C282.7 331.7 300.3 316.3 318 307.7C335.7 299 353.3 297 371 297.5C388.7 298 406.3 301 423.8 299.3C441.3 297.7 458.7 291.3 476.2 296.5C493.7 301.7 511.3 318.3 529 317.7C546.7 317 564.3 299 582 294.5C599.7 290 617.3 299 635 299.7C652.7 300.3 670.3 292.7 688 293.3C705.7 294 723.3 303 741 302.8C758.7 302.7 776.3 293.3 794 299.7C811.7 306 829.3 328 847 332.7C864.7 337.3 882.3 324.7 891.2 318.3L900 312L900 451L891.2 451C882.3 451 864.7 451 847 451C829.3 451 811.7 451 794 451C776.3 451 758.7 451 741 451C723.3 451 705.7 451 688 451C670.3 451 652.7 451 635 451C617.3 451 599.7 451 582 451C564.3 451 546.7 451 529 451C511.3 451 493.7 451 476.2 451C458.7 451 441.3 451 423.8 451C406.3 451 388.7 451 371 451C353.3 451 335.7 451 318 451C300.3 451 282.7 451 265 451C247.3 451 229.7 451 212 451C194.3 451 176.7 451 159 451C141.3 451 123.7 451 106 451C88.3 451 70.7 451 53 451C35.3 451 17.7 451 8.8 451L0 451Z" fill="#413c58"></path><path d="M0 359L8.8 356.7C17.7 354.3 35.3 349.7 53 340.8C70.7 332 88.3 319 106 311.7C123.7 304.3 141.3 302.7 159 302.3C176.7 302 194.3 303 212 312.5C229.7 322 247.3 340 265 338.5C282.7 337 300.3 316 318 314.8C335.7 313.7 353.3 332.3 371 335.7C388.7 339 406.3 327 423.8 322.8C441.3 318.7 458.7 322.3 476.2 318.5C493.7 314.7 511.3 303.3 529 303.8C546.7 304.3 564.3 316.7 582 316.2C599.7 315.7 617.3 302.3 635 307.8C652.7 313.3 670.3 337.7 688 338C705.7 338.3 723.3 314.7 741 307.5C758.7 300.3 776.3 309.7 794 319C811.7 328.3 829.3 337.7 847 340.2C864.7 342.7 882.3 338.3 891.2 336.2L900 334L900 451L891.2 451C882.3 451 864.7 451 847 451C829.3 451 811.7 451 794 451C776.3 451 758.7 451 741 451C723.3 451 705.7 451 688 451C670.3 451 652.7 451 635 451C617.3 451 599.7 451 582 451C564.3 451 546.7 451 529 451C511.3 451 493.7 451 476.2 451C458.7 451 441.3 451 423.8 451C406.3 451 388.7 451 371 451C353.3 451 335.7 451 318 451C300.3 451 282.7 451 265 451C247.3 451 229.7 451 212 451C194.3 451 176.7 451 159 451C141.3 451 123.7 451 106 451C88.3 451 70.7 451 53 451C35.3 451 17.7 451 8.8 451L0 451Z" fill="#524069"></path><path d="M0 339L8.8 342.8C17.7 346.7 35.3 354.3 53 360.5C70.7 366.7 88.3 371.3 106 363.5C123.7 355.7 141.3 335.3 159 331.3C176.7 327.3 194.3 339.7 212 347.2C229.7 354.7 247.3 357.3 265 358.3C282.7 359.3 300.3 358.7 318 356.3C335.7 354 353.3 350 371 352.8C388.7 355.7 406.3 365.3 423.8 369.8C441.3 374.3 458.7 373.7 476.2 363.7C493.7 353.7 511.3 334.3 529 331.7C546.7 329 564.3 343 582 345.5C599.7 348 617.3 339 635 332.2C652.7 325.3 670.3 320.7 688 327.5C705.7 334.3 723.3 352.7 741 359.3C758.7 366 776.3 361 794 353C811.7 345 829.3 334 847 331.3C864.7 328.7 882.3 334.3 891.2 337.2L900 340L900 451L891.2 451C882.3 451 864.7 451 847 451C829.3 451 811.7 451 794 451C776.3 451 758.7 451 741 451C723.3 451 705.7 451 688 451C670.3 451 652.7 451 635 451C617.3 451 599.7 451 582 451C564.3 451 546.7 451 529 451C511.3 451 493.7 451 476.2 451C458.7 451 441.3 451 423.8 451C406.3 451 388.7 451 371 451C353.3 451 335.7 451 318 451C300.3 451 282.7 451 265 451C247.3 451 229.7 451 212 451C194.3 451 176.7 451 159 451C141.3 451 123.7 451 106 451C88.3 451 70.7 451 53 451C35.3 451 17.7 451 8.8 451L0 451Z" fill="#674276"></path><path d="M0 364L8.8 358.8C17.7 353.7 35.3 343.3 53 338C70.7 332.7 88.3 332.3 106 335.8C123.7 339.3 141.3 346.7 159 355C176.7 363.3 194.3 372.7 212 375.5C229.7 378.3 247.3 374.7 265 371.8C282.7 369 300.3 367 318 364.7C335.7 362.3 353.3 359.7 371 358.3C388.7 357 406.3 357 423.8 361.3C441.3 365.7 458.7 374.3 476.2 377.3C493.7 380.3 511.3 377.7 529 373C546.7 368.3 564.3 361.7 582 359.2C599.7 356.7 617.3 358.3 635 354.7C652.7 351 670.3 342 688 337.3C705.7 332.7 723.3 332.3 741 332.3C758.7 332.3 776.3 332.7 794 335.7C811.7 338.7 829.3 344.3 847 352.2C864.7 360 882.3 370 891.2 375L900 380L900 451L891.2 451C882.3 451 864.7 451 847 451C829.3 451 811.7 451 794 451C776.3 451 758.7 451 741 451C723.3 451 705.7 451 688 451C670.3 451 652.7 451 635 451C617.3 451 599.7 451 582 451C564.3 451 546.7 451 529 451C511.3 451 493.7 451 476.2 451C458.7 451 441.3 451 423.8 451C406.3 451 388.7 451 371 451C353.3 451 335.7 451 318 451C300.3 451 282.7 451 265 451C247.3 451 229.7 451 212 451C194.3 451 176.7 451 159 451C141.3 451 123.7 451 106 451C88.3 451 70.7 451 53 451C35.3 451 17.7 451 8.8 451L0 451Z" fill="#804281"></path><path d="M0 400L8.8 398C17.7 396 35.3 392 53 385.7C70.7 379.3 88.3 370.7 106 368.3C123.7 366 141.3 370 159 368C176.7 366 194.3 358 212 355.3C229.7 352.7 247.3 355.3 265 358C282.7 360.7 300.3 363.3 318 365.5C335.7 367.7 353.3 369.3 371 370C388.7 370.7 406.3 370.3 423.8 373.2C441.3 376 458.7 382 476.2 381.5C493.7 381 511.3 374 529 375.3C546.7 376.7 564.3 386.3 582 391C599.7 395.7 617.3 395.3 635 390.5C652.7 385.7 670.3 376.3 688 372C705.7 367.7 723.3 368.3 741 365.7C758.7 363 776.3 357 794 354.3C811.7 351.7 829.3 352.3 847 352.8C864.7 353.3 882.3 353.7 891.2 353.8L900 354L900 451L891.2 451C882.3 451 864.7 451 847 451C829.3 451 811.7 451 794 451C776.3 451 758.7 451 741 451C723.3 451 705.7 451 688 451C670.3 451 652.7 451 635 451C617.3 451 599.7 451 582 451C564.3 451 546.7 451 529 451C511.3 451 493.7 451 476.2 451C458.7 451 441.3 451 423.8 451C406.3 451 388.7 451 371 451C353.3 451 335.7 451 318 451C300.3 451 282.7 451 265 451C247.3 451 229.7 451 212 451C194.3 451 176.7 451 159 451C141.3 451 123.7 451 106 451C88.3 451 70.7 451 53 451C35.3 451 17.7 451 8.8 451L0 451Z" fill="#9b3f86"></path><path d="M0 395L8.8 394C17.7 393 35.3 391 53 391.3C70.7 391.7 88.3 394.3 106 398.2C123.7 402 141.3 407 159 403C176.7 399 194.3 386 212 384.2C229.7 382.3 247.3 391.7 265 393.8C282.7 396 300.3 391 318 390.5C335.7 390 353.3 394 371 398.3C388.7 402.7 406.3 407.3 423.8 409C441.3 410.7 458.7 409.3 476.2 404.5C493.7 399.7 511.3 391.3 529 388.5C546.7 385.7 564.3 388.3 582 386.7C599.7 385 617.3 379 635 381.8C652.7 384.7 670.3 396.3 688 397.8C705.7 399.3 723.3 390.7 741 388.7C758.7 386.7 776.3 391.3 794 395.8C811.7 400.3 829.3 404.7 847 406.8C864.7 409 882.3 409 891.2 409L900 409L900 451L891.2 451C882.3 451 864.7 451 847 451C829.3 451 811.7 451 794 451C776.3 451 758.7 451 741 451C723.3 451 705.7 451 688 451C670.3 451 652.7 451 635 451C617.3 451 599.7 451 582 451C564.3 451 546.7 451 529 451C511.3 451 493.7 451 476.2 451C458.7 451 441.3 451 423.8 451C406.3 451 388.7 451 371 451C353.3 451 335.7 451 318 451C300.3 451 282.7 451 265 451C247.3 451 229.7 451 212 451C194.3 451 176.7 451 159 451C141.3 451 123.7 451 106 451C88.3 451 70.7 451 53 451C35.3 451 17.7 451 8.8 451L0 451Z" fill="#b73988"></path><path d="M0 394L8.8 393.7C17.7 393.3 35.3 392.7 53 394.3C70.7 396 88.3 400 106 400.8C123.7 401.7 141.3 399.3 159 401.5C176.7 403.7 194.3 410.3 212 410.3C229.7 410.3 247.3 403.7 265 399.3C282.7 395 300.3 393 318 393.8C335.7 394.7 353.3 398.3 371 403.5C388.7 408.7 406.3 415.3 423.8 417.8C441.3 420.3 458.7 418.7 476.2 415.3C493.7 412 511.3 407 529 406C546.7 405 564.3 408 582 411.2C599.7 414.3 617.3 417.7 635 415.2C652.7 412.7 670.3 404.3 688 402.8C705.7 401.3 723.3 406.7 741 410.5C758.7 414.3 776.3 416.7 794 416.3C811.7 416 829.3 413 847 409.2C864.7 405.3 882.3 400.7 891.2 398.3L900 396L900 451L891.2 451C882.3 451 864.7 451 847 451C829.3 451 811.7 451 794 451C776.3 451 758.7 451 741 451C723.3 451 705.7 451 688 451C670.3 451 652.7 451 635 451C617.3 451 599.7 451 582 451C564.3 451 546.7 451 529 451C511.3 451 493.7 451 476.2 451C458.7 451 441.3 451 423.8 451C406.3 451 388.7 451 371 451C353.3 451 335.7 451 318 451C300.3 451 282.7 451 265 451C247.3 451 229.7 451 212 451C194.3 451 176.7 451 159 451C141.3 451 123.7 451 106 451C88.3 451 70.7 451 53 451C35.3 451 17.7 451 8.8 451L0 451Z" fill="#d22f84"></path><path d="M0 424L8.8 422.2C17.7 420.3 35.3 416.7 53 417.7C70.7 418.7 88.3 424.3 106 427.3C123.7 430.3 141.3 430.7 159 431.3C176.7 432 194.3 433 212 432.7C229.7 432.3 247.3 430.7 265 430.2C282.7 429.7 300.3 430.3 318 428.2C335.7 426 353.3 421 371 419.7C388.7 418.3 406.3 420.7 423.8 422.7C441.3 424.7 458.7 426.3 476.2 425C493.7 423.7 511.3 419.3 529 418.5C546.7 417.7 564.3 420.3 582 420.2C599.7 420 617.3 417 635 416.8C652.7 416.7 670.3 419.3 688 421.2C705.7 423 723.3 424 741 425.8C758.7 427.7 776.3 430.3 794 428.7C811.7 427 829.3 421 847 420.5C864.7 420 882.3 425 891.2 427.5L900 430L900 451L891.2 451C882.3 451 864.7 451 847 451C829.3 451 811.7 451 794 451C776.3 451 758.7 451 741 451C723.3 451 705.7 451 688 451C670.3 451 652.7 451 635 451C617.3 451 599.7 451 582 451C564.3 451 546.7 451 529 451C511.3 451 493.7 451 476.2 451C458.7 451 441.3 451 423.8 451C406.3 451 388.7 451 371 451C353.3 451 335.7 451 318 451C300.3 451 282.7 451 265 451C247.3 451 229.7 451 212 451C194.3 451 176.7 451 159 451C141.3 451 123.7 451 106 451C88.3 451 70.7 451 53 451C35.3 451 17.7 451 8.8 451L0 451Z" fill="#ed217c"></path></svg>